<?xml version="1.0" encoding="UTF-8"?>
<!DOCTYPE svg PUBLIC "-//W3C//DTD SVG 1.1//EN" "http://www.w3.org/Graphics/SVG/1.1/DTD/svg11.dtd">
<!-- Creator: CorelDRAW 2021 (64-Bit) -->
<svg xmlns="http://www.w3.org/2000/svg" xml:space="preserve" width="200.402mm" height="40.1247mm" version="1.1" shape-rendering="geometricPrecision" text-rendering="geometricPrecision" image-rendering="optimizeQuality" fill-rule="evenodd" clip-rule="evenodd"
viewBox="0 0 20535.36 4111.61"
 xmlns:xlink="http://www.w3.org/1999/xlink"
 xmlns:xodm="http://www.corel.com/coreldraw/odm/2003">
 <defs>
     <linearGradient id="id0" gradientUnits="userSpaceOnUse" x1="-0.02" y1="794.91" x2="4004.09" y2="794.91">
      <stop offset="0" stop-opacity="1" stop-color="#781C33"/>
      <stop offset="0.388235" stop-opacity="1" stop-color="#9A0E39"/>
      <stop offset="1" stop-opacity="1" stop-color="#BD0040"/>
     </linearGradient>
     <linearGradient id="id1" gradientUnits="userSpaceOnUse" x1="3253.33" y1="4048.24" x2="3253.33" y2="44.1">
      <stop offset="0" stop-opacity="1" stop-color="#0F4736"/>
      <stop offset="1" stop-opacity="1" stop-color="#0F8B59"/>
     </linearGradient>
     <linearGradient id="id2" gradientUnits="userSpaceOnUse" x1="1092.05" y1="590.12" x2="4004.09" y2="590.12">
      <stop offset="0" stop-opacity="1" stop-color="#F20F38"/>
      <stop offset="0.0784314" stop-opacity="1" stop-color="#F82E48"/>
      <stop offset="1" stop-opacity="1" stop-color="#FF4D59"/>
     </linearGradient>
     <linearGradient id="id3" gradientUnits="userSpaceOnUse" x1="-0.02" y1="2592.22" x2="1092.01" y2="2592.22">
      <stop offset="0" stop-opacity="1" stop-color="#BD0040"/>
      <stop offset="1" stop-opacity="1" stop-color="#F20F38"/>
     </linearGradient>
     <linearGradient id="id4" gradientUnits="userSpaceOnUse" x1="3458.05" y1="2956.16" x2="3458.05" y2="44.1">
      <stop offset="0" stop-opacity="1" stop-color="#00CB73"/>
      <stop offset="1" stop-opacity="1" stop-color="#42E3A3"/>
     </linearGradient>
     <linearGradient id="id5" gradientUnits="userSpaceOnUse" x1="1456.05" y1="4048.24" x2="1456.05" y2="2956.19">
      <stop offset="0" stop-opacity="1" stop-color="#0F8958"/>
      <stop offset="1" stop-opacity="1" stop-color="#00CC73"/>
     </linearGradient>
 </defs>
 <g id="Слой_x0020_1">
  <metadata id="CorelCorpID_0Corel-Layer"/>
  <g id="_2630897460096">
   <path fill="black" fill-rule="nonzero" d="M5556.34 390.71l-378.91 0 0 284.41 -82.68 0 0 -636.06 82.68 0 0 274.43 378.91 0 0 -274.43 82.66 0 0 636.06 -82.66 0 0 -284.41zm1889.36 2142.22c-285.74,1.99 -542.37,153.55 -669.67,380.78l307.9 147.93c69.6,-111.47 209.42,-190.52 367.22,-190.52 200.89,0 365.25,125.93 422.93,286.51l-571.91 0 0 329.25 571.91 0c-57.68,160.58 -222.03,286.5 -422.95,286.5 -157.77,0 -297.59,-79.05 -367.18,-190.47l-308.99 148.44c126.56,228.01 383.38,380.27 676.15,380.27 416.27,0 801.68,-324.64 801.68,-789.37 0,-464.7 -397.86,-792.16 -807.1,-789.3zm955.79 65.26l0 329.25 543.25 0 0 1118.87 361.62 0 0 -1118.87 543.26 0 0 -329.25 -1448.13 0zm-2211.37 0l0 559.43 -724.85 0 0 -559.43 -361.65 0 0 1448.12 361.65 0 0 -559.44 724.85 0 0 559.44 361.63 0 0 -1448.12 -361.63 0zm5063.03 0l-748.95 886 0 -886 -361.63 0 0 1448.12 337.53 0 748.94 -885.99 0 885.99 361.63 0 0 -1448.12 -337.52 0zm5150.63 -1305.2l439.77 0 0 71.79 -182.61 0 0 400.71 -76.33 0 0 -400.71 -180.83 0 0 -71.79zm-414.34 196.26l298.95 0c-3.65,-89.95 -58.14,-139.03 -142.65,-139.03 -88.12,0 -149.01,59.08 -156.3,139.03zm361.65 186.27c-44.52,66.33 -111.76,98.16 -188.99,98.16 -149.94,0 -251.73,-95.44 -251.73,-245.35 0,-139.03 83.61,-246.27 240.83,-246.27 124.46,0 218.06,83.62 218.06,214.44 0,15.46 -0.92,35.47 -4.54,56.37l-374.35 0c4.54,95.41 78.12,150.81 174.45,150.81 57.22,0 109.05,-30.87 137.21,-71.76l49.06 43.6zm-907.76 -382.53l439.77 0 0 71.79 -182.61 0 0 400.71 -76.32 0 0 -400.71 -180.84 0 0 -71.79zm-509.76 472.5l0 -472.5 76.35 0 0 264.43 -2.75 101.74 60.87 -81.76 228.99 -284.41 70.87 0 0 472.5 -76.33 0 0 -273.54 2.73 -91.76 -51.78 70.89 -238.98 294.41 -69.97 0zm-89.94 -97.23c-36.35,69.07 -119.06,105.4 -194.47,105.4 -149.9,0 -252.59,-95.4 -252.59,-245.34 0,-139.01 99.02,-246.24 248.05,-246.24 84.49,0 159.94,38.16 191.72,96.32l-59.04 39.99c-32.73,-44.53 -72.7,-64.54 -130.86,-64.54 -97.22,0 -169.02,72.69 -169.02,174.46 0,103.59 71.79,173.55 179,173.55 57.27,0 103.61,-29.08 132.67,-72.7l54.53 39.08zm-902.29 -216.26l0 176.27c29.08,51.78 81.77,73.64 137.21,73.64 93.6,0 160.82,-72.73 160.82,-175.4 0,-105.39 -58.14,-172.63 -153.55,-172.63 -74.51,0 -125.39,49.99 -144.47,98.13zm-76.35 -158.99l76.35 0 0 59.04c34.52,-50.89 96.33,-69.97 152.65,-69.97 139.93,0 226.23,99.06 226.23,238.98 0,144.47 -95.38,252.6 -235.31,252.6 -59.99,0 -109.05,-13.62 -143.57,-48.14l0 221.7 -76.35 0 0 -654.21zm-488.86 196.25l298.97 0c-3.66,-89.95 -58.16,-139.03 -142.65,-139.03 -88.15,0 -149.03,59.08 -156.32,139.03zm361.66 186.27c-44.53,66.33 -111.75,98.16 -189.01,98.16 -149.92,0 -251.69,-95.44 -251.69,-245.35 0,-139.03 83.58,-246.27 240.8,-246.27 124.46,0 218.08,83.62 218.08,214.44 0,15.46 -0.92,35.47 -4.54,56.37l-374.38 0c4.54,95.41 78.12,150.81 174.46,150.81 57.24,0 109.05,-30.87 137.21,-71.76l49.07 43.6zm-860.48 -119.93l0 140.84 138.11 0c95.4,0 119.05,-21.81 119.05,-69.97 0,-47.24 -37.27,-70.87 -112.7,-70.87l-144.46 0zm0 -193.53l0 131.72 152.65 0c55.42,0 89.05,-26.33 89.05,-69.03 0,-51.81 -29.99,-62.68 -117.21,-62.68l-124.49 0zm-76.35 -69.08l212.66 0c128.11,0 186.25,37.27 186.25,120.85 0,47.25 -25.44,87.22 -75.43,105.38 65.43,12.75 90.87,54.55 90.87,110.87 0,89.05 -61.78,135.39 -189.89,135.39l-224.46 0 0 -472.5zm-570.61 472.5l0 -472.5 76.33 0 0 264.43 -2.73 101.74 60.86 -81.76 229.01 -284.41 70.86 0 0 472.5 -76.32 0 0 -273.54 2.72 -91.76 -51.79 70.89 -238.97 294.41 -69.97 0zm-212.65 -204.45l-272.57 0 0 204.46 -76.35 0 0 -472.5 76.35 0 0 196.25 272.57 0 0 -196.25 76.35 0 0 472.5 -76.35 0 0 -204.46zm-803.23 318.03c6.35,2.72 12.74,4.54 20,4.54 34.52,0 59.04,-23.62 91.76,-99.95l14.54 -35.44 -228.97 -455.23 89.97 0 140.83 286.22 36.35 81.78 28.16 -85.43 105.41 -282.57 83.58 0 -179.91 465.23c-64.51,158.99 -113.57,198.09 -179,198.09 -20,0 -37.24,-3.65 -52.7,-10.93l29.98 -66.3zm-758.7 -776.88c0.92,43.62 29.08,74.5 80.86,74.5 50,0 78.15,-30.87 78.15,-74.5l71.8 0c-1.82,83.58 -67.24,135.38 -149.96,135.38 -89.02,0 -151.73,-49.96 -152.63,-135.38l71.77 0zm-144.47 663.31l0 -472.5 76.32 0 0 264.42 -2.72 101.75 60.87 -81.77 228.99 -284.4 70.87 0 0 472.5 -76.33 0 0 -273.54 2.73 -91.76 -51.78 70.87 -238.98 294.43 -69.97 0zm-570.63 -0.01l0 -472.5 76.34 0 0 264.43 -2.74 101.74 60.89 -81.76 228.97 -284.41 70.87 0 0 472.5 -76.33 0 0 -273.54 2.73 -91.76 -51.79 70.89 -238.98 294.41 -69.96 0zm-502.48 -472.5l76.32 0 0 229.9 238.98 -229.9 102.68 0 -232.63 220.8 244.44 251.7 -105.38 0 -217.21 -227.19 -30.88 35.47 0 191.72 -76.32 0 0 -472.5zm-89.94 375.27c-36.37,69.07 -119.06,105.4 -194.47,105.4 -149.9,0 -252.61,-95.4 -252.61,-245.34 0,-139.01 99.04,-246.24 248.07,-246.24 84.49,0 159.92,38.16 191.72,96.32l-59.07 39.99c-32.7,-44.53 -72.67,-64.54 -130.82,-64.54 -97.24,0 -169.02,72.69 -169.02,174.46 0,103.59 71.77,173.55 179,173.55 57.25,0 103.62,-29.08 132.67,-72.7l54.53 39.08zm-905.96 -179.01l298.97 0c-3.67,-89.95 -58.17,-139.03 -142.66,-139.03 -88.14,0 -149.03,59.08 -156.31,139.03zm361.65 186.27c-44.52,66.33 -111.74,98.16 -189,98.16 -149.92,0 -251.7,-95.44 -251.7,-245.35 0,-139.03 83.59,-246.27 240.8,-246.27 124.47,0 218.08,83.62 218.08,214.44 0,15.46 -0.92,35.47 -4.54,56.37l-374.37 0c4.54,95.41 78.14,150.81 174.46,150.81 57.24,0 109.04,-30.87 137.21,-71.76l49.06 43.6zm-547 89.97l-76.34 0 0 -199.02c-32.68,32.75 -73.58,51.83 -144.47,51.83 -120.82,0 -186.25,-60.89 -186.25,-188.11l0 -137.21 76.33 0 0 116.3c0,97.23 40.88,136.3 123.57,136.3 57.24,0 108.13,-31.81 130.82,-64.51l0 -188.1 76.34 0 0 472.5zm-953.16 0l0 -472.5 76.32 0 0 264.43 -2.72 101.74 60.86 -81.76 229.01 -284.41 70.86 0 0 472.5 -76.32 0 0 -273.54 2.72 -91.76 -51.79 70.89 -238.97 294.41 -69.97 0zm-212.65 -204.45l-272.57 0 0 204.46 -76.36 0 0 -472.5 76.36 0 0 196.25 272.57 0 0 -196.25 76.35 0 0 472.5 -76.35 0 0 -204.46zm-623.3 -39.98l189.92 244.42 -95.41 0 -146.3 -189.92 -148.11 189.92 -90.86 0 188.97 -243.52 -178.99 -228.96 95.4 0 136.32 173.53 137.21 -173.53 92.7 0 -180.84 228.06zm-706.96 -31.81l298.97 0c-3.67,-89.95 -58.17,-139.03 -142.66,-139.03 -88.14,0 -149.03,59.08 -156.31,139.03zm361.65 186.27c-44.52,66.33 -111.74,98.16 -189,98.16 -149.94,0 -251.7,-95.44 -251.7,-245.35 0,-139.03 83.59,-246.27 240.8,-246.27 124.47,0 218.08,83.62 218.08,214.44 0,15.46 -0.92,35.47 -4.54,56.37l-374.37 0c4.54,95.41 78.14,150.81 174.46,150.81 57.24,0 109.04,-30.87 137.21,-71.76l49.06 43.6zm-907.76 -382.53l439.78 0 0 71.79 -182.61 0 0 400.71 -76.33 0 0 -400.71 -180.84 0 0 -71.79zm15230.71 -1281.19c0.92,43.62 29.09,74.5 80.86,74.5 50,0 78.15,-30.87 78.15,-74.5l71.81 0c-1.82,83.59 -67.25,135.39 -149.97,135.39 -89.02,0 -151.72,-49.97 -152.62,-135.39l71.76 0zm-144.47 663.31l0 -472.5 76.33 0 0 264.43 -2.72 101.74 60.86 -81.77 229 -284.4 70.87 0 0 472.5 -76.33 0 0 -273.5 2.72 -91.76 -51.78 70.86 -238.98 294.41 -69.97 0zm-213.54 -472.49l77.26 0 0 472.47 -77.26 0 0 -472.47zm-363.45 219.87l0 179.94 92.7 0c90.87,0 122.67,-32.72 122.67,-89.97 0,-57.24 -33.62,-89.97 -121.78,-89.97l-93.59 0zm-76.32 -219.87l76.32 0 0 147.18 101.77 0c149,0 194.46,74.52 194.46,161.76 0,85.38 -50.89,163.55 -201.71,163.55l-170.84 0 0 -472.49zm-212.64 268.03l-272.6 0 0 204.46 -76.33 0 0 -472.49 76.33 0 0 196.25 272.6 0 0 -196.25 76.32 0 0 472.49 -76.32 0 0 -204.46zm-561.54 0l-272.58 0 0 204.46 -76.35 0 0 -472.49 76.35 0 0 196.25 272.58 0 0 -196.25 76.35 0 0 472.49 -76.35 0 0 -204.46zm-837.77 -71.78l298.97 0c-3.67,-89.95 -58.17,-139.03 -142.65,-139.03 -88.15,0 -149.03,59.08 -156.32,139.03zm361.65 186.28c-44.52,66.32 -111.74,98.15 -189,98.15 -149.92,0 -251.7,-95.41 -251.7,-245.35 0,-139.03 83.59,-246.26 240.81,-246.26 124.46,0 218.07,83.61 218.07,214.44 0,15.45 -0.92,35.47 -4.54,56.37l-374.37 0c4.54,95.38 78.14,150.81 174.46,150.81 57.24,0 109.05,-30.88 137.21,-71.77l49.06 43.61zm-860.5 -119.93l0 140.83 138.11 0c95.43,0 119.05,-21.8 119.05,-69.97 0,-47.24 -37.26,-70.86 -112.69,-70.86l-144.47 0zm0 -193.54l0 131.73 152.65 0c55.46,0 89.05,-26.35 89.05,-69.04 0,-51.8 -29.98,-62.68 -117.21,-62.68l-124.49 0zm-76.35 -69.07l212.66 0c128.11,0 186.28,37.24 186.28,120.85 0,47.24 -25.46,87.21 -75.45,105.38 65.43,12.75 90.87,54.55 90.87,110.86 0,89.06 -61.79,135.37 -189.9,135.37l-224.46 0 0 -472.47zm-515.17 0l439.76 0 0 71.78 -182.6 0 0 400.69 -76.33 0 0 -400.69 -180.83 0 0 -71.78zm-29.99 375.26c-36.34,69.07 -119.05,105.41 -194.45,105.41 -149.91,0 -252.6,-95.41 -252.6,-245.34 0,-139.04 99.02,-246.25 248.05,-246.25 84.49,0 159.94,38.16 191.71,96.33l-59.04 39.95c-32.72,-44.49 -72.7,-64.5 -130.84,-64.5 -97.22,0 -169.02,72.68 -169.02,174.46 0,103.59 71.79,173.54 179,173.54 57.26,0 103.61,-29.08 132.67,-72.7l54.52 39.08zm-902.28 -216.26l0 176.27c29.08,51.79 81.76,73.64 137.21,73.64 93.59,0 160.82,-72.73 160.82,-175.4 0,-105.39 -58.15,-172.63 -153.55,-172.63 -74.51,0 -125.39,49.99 -144.47,98.13zm-76.35 -158.99l76.35 0 0 59.04c34.52,-50.88 96.32,-69.96 152.65,-69.96 139.93,0 226.23,99.05 226.23,238.97 0,144.47 -95.38,252.6 -235.31,252.6 -59.99,0 -109.05,-13.62 -143.57,-48.14l0 221.7 -76.35 0 0 -654.21zm-206.23 319.83l0 -52.71c-23.65,-8.18 -62.69,-15.44 -100.87,-15.44 -95.41,0 -155.4,22.73 -155.4,79.95 0,49.11 44.54,78.17 109.06,78.17 79.04,0 130.87,-51.81 147.21,-89.97zm-306.23 -263.5c43.63,-40.89 119.03,-67.24 198.11,-67.24 125.38,0 184.45,69.96 184.45,191.73l0 291.66 -76.32 0 0 -86.33c-23.65,45.46 -83.59,92.68 -165.4,92.68 -102.67,0 -171.71,-57.24 -171.71,-144.46 0,-102.7 89.95,-144.47 226.23,-144.47 35.44,0 87.22,4.54 110.87,11.83 5.44,-88.16 -27.27,-143.57 -126.32,-143.57 -53.6,0 -97.22,19.97 -140.83,52.7l-39.09 -54.52zm-436.13 49.06c0,139.03 -17.29,227.15 -50.89,294.41l255.35 0 0 -327.12 -204.46 0 0 32.71zm-185.36 294.41l52.71 0c49.06,-75.44 60.86,-166.28 60.86,-356.2l0 -43.6 352.58 0 0 399.8 68.13 0 0 192.62 -72.67 0 0 -119.95 -388.95 0 0 119.95 -72.66 0 0 -192.62zm-377.11 186.27c6.36,2.72 12.72,4.54 20,4.54 34.52,0 59.04,-23.62 91.77,-99.95l14.54 -35.42 -229 -455.24 89.97 0 140.83 286.23 36.37 81.76 28.16 -85.41 105.39 -282.58 83.61 0 -179.92 465.22c-64.51,159.01 -113.56,198.1 -179,198.1 -20,0 -37.26,-3.66 -52.7,-10.92l29.98 -66.32zm-126.3 -210.81c-36.37,69.07 -119.06,105.41 -194.46,105.41 -149.91,0 -252.6,-95.41 -252.6,-245.34 0,-139.04 99.02,-246.25 248.06,-246.25 84.48,0 159.91,38.16 191.71,96.33l-59.06 39.95c-32.7,-44.49 -72.68,-64.5 -130.83,-64.5 -97.22,0 -169.01,72.68 -169.01,174.46 0,103.59 71.78,173.54 178.99,173.54 57.27,0 103.62,-29.08 132.67,-72.7l54.53 39.08zm-775.07 33.64c100.84,0 170.81,-69.97 170.81,-173.57 0,-104.5 -73.58,-174.48 -170.81,-174.48 -97.23,0 -169.02,69.08 -169.02,174.48 0,100.85 69.96,173.57 169.02,173.57zm0 -419.82c149,0 251.68,102.69 251.68,246.26 0,142.66 -102.68,245.35 -251.68,245.35 -146.3,0 -249.89,-102.69 -249.89,-245.35 0,-143.57 101.77,-246.26 249.89,-246.26zm-620.6 10.92l344.36 0 0 71.78 -268.03 0 0 400.69 -76.33 0 0 -472.47zm-716.93 -190.82c0.92,43.62 29.08,74.5 80.89,74.5 49.99,0 78.14,-30.87 78.14,-74.5l71.79 0c-1.82,83.59 -67.25,135.39 -149.94,135.39 -89.05,0 -151.76,-49.97 -152.66,-135.39l71.77 0zm-144.47 663.31l0 -472.5 76.33 0 0 264.43 -2.73 101.74 60.89 -81.77 228.98 -284.4 70.86 0 0 472.5 -76.32 0 0 -273.5 2.72 -91.76 -51.79 70.86 -238.97 294.41 -69.97 0zm-570.64 -0.01l0 -472.48 76.34 0 0 264.43 -2.74 101.74 60.89 -81.78 228.97 -284.39 70.87 0 0 472.48 -76.33 0 0 -273.5 2.73 -91.76 -51.79 70.86 -238.98 294.41 -69.96 0zm-502.48 -472.48l76.32 0 0 229.89 238.98 -229.89 102.68 0 -232.63 220.79 244.44 251.68 -105.41 0 -217.18 -227.16 -30.88 35.47 0 191.69 -76.32 0 0 -472.47zm-89.94 375.26c-36.37,69.07 -119.05,105.41 -194.46,105.41 -149.91,0 -252.62,-95.41 -252.62,-245.34 0,-139.04 99.05,-246.25 248.08,-246.25 84.48,0 159.91,38.16 191.71,96.33l-59.06 39.95c-32.7,-44.49 -72.68,-64.5 -130.83,-64.5 -97.22,0 -169.04,72.68 -169.04,174.46 0,103.59 71.81,173.54 179.02,173.54 57.25,0 103.62,-29.08 132.67,-72.7l54.53 39.08zm-902.29 -216.26l0 176.27c29.08,51.79 81.76,73.64 137.21,73.64 93.59,0 160.83,-72.73 160.83,-175.4 0,-105.39 -58.16,-172.63 -153.57,-172.63 -74.51,0 -125.38,49.99 -144.46,98.13zm-76.33 -158.99l76.33 0 0 59.04c34.54,-50.88 96.32,-69.96 152.67,-69.96 139.9,0 226.23,99.05 226.23,238.97 0,144.47 -95.41,252.6 -235.33,252.6 -60,0 -109.03,-13.62 -143.57,-48.14l0 221.7 -76.33 0 0 -654.21zm-570.64 472.48l0 -472.48 76.32 0 0 264.43 -2.73 101.74 60.87 -81.78 229 -284.39 70.87 0 0 472.48 -76.33 0 0 -273.5 2.73 -91.76 -51.79 70.86 -238.98 294.41 -69.96 0zm-514.28 -254.41c0,117.22 69.96,190.82 167.19,190.82 97.22,0 159.91,-71.79 159.91,-164.48 0,-94.51 -55.4,-156.27 -157.19,-156.27 -93.57,0 -152.65,61.76 -169.91,123.57l0 6.35zm350.74 -350.75c-79.04,31.83 -189.91,11.83 -258.05,44.52 -79.97,38.17 -102.67,117.21 -102.67,212.62 32.7,-70.87 117.21,-109 196.25,-109 130.82,0 221.7,80.84 221.7,224.41 0,135.39 -97.23,241.7 -239.88,241.7 -150.83,0 -248.95,-99.94 -248.95,-283.51 0,-171.73 16.35,-289.86 140.85,-352.57 84.49,-42.68 197.16,-20.87 280.76,-48.12l10 69.95zm-983.16 605.16l0 -472.48 76.34 0 0 264.43 -2.74 101.74 60.88 -81.78 228.98 -284.39 70.87 0 0 472.48 -76.33 0 0 -273.5 2.72 -91.76 -51.78 70.86 -238.98 294.41 -69.96 0zm-89.97 -97.22c-36.35,69.07 -119.05,105.41 -194.46,105.41 -149.9,0 -252.6,-95.41 -252.6,-245.34 0,-139.04 99.05,-246.25 248.06,-246.25 84.49,0 159.94,38.16 191.71,96.33l-59.04 39.95c-32.72,-44.49 -72.7,-64.5 -130.84,-64.5 -97.22,0 -169.02,72.68 -169.02,174.46 0,103.59 71.79,173.54 179,173.54 57.27,0 103.61,-29.08 132.67,-72.7l54.52 39.08zm-775.07 33.64c100.84,0 170.82,-69.97 170.82,-173.57 0,-104.5 -73.58,-174.48 -170.82,-174.48 -97.22,0 -169.02,69.08 -169.02,174.48 0,100.85 69.97,173.57 169.02,173.57zm0 -419.82c149.01,0 251.7,102.69 251.7,246.26 0,142.66 -102.69,245.35 -251.7,245.35 -146.29,0 -249.89,-102.69 -249.89,-245.35 0,-143.57 101.77,-246.26 249.89,-246.26zm-669.66 273.53l0 140.83 138.11 0c95.38,0 119.04,-21.8 119.04,-69.97 0,-47.24 -37.26,-70.86 -112.69,-70.86l-144.46 0zm0 -193.54l0 131.73 152.65 0c55.42,0 89.05,-26.35 89.05,-69.04 0,-51.8 -29.99,-62.68 -117.22,-62.68l-124.48 0zm-76.36 -69.07l212.67 0c128.11,0 186.25,37.24 186.25,120.85 0,47.24 -25.44,87.21 -75.42,105.38 65.42,12.75 90.86,54.55 90.86,110.86 0,89.06 -61.78,135.37 -189.89,135.37l-224.47 0 0 -472.47zm-357.96 408.9c100.84,0 170.81,-69.97 170.81,-173.57 0,-104.5 -73.58,-174.48 -170.81,-174.48 -97.22,0 -169.02,69.08 -169.02,174.48 0,100.85 69.97,173.57 169.02,173.57zm0 -419.82c149.01,0 251.68,102.69 251.68,246.26 0,142.66 -102.67,245.35 -251.68,245.35 -146.3,0 -249.91,-102.69 -249.91,-245.35 0,-143.57 101.79,-246.26 249.91,-246.26z"/>
   <g>
    <polygon fill="url(#id0)" points="4004.09,44.14 -0,44.14 -0,1545.69 "/>
    <polygon fill="url(#id1)" points="2502.53,4048.2 4004.09,4048.2 4004.09,44.14 "/>
    <polygon fill="url(#id2)" points="1092.02,1136.17 2912.05,1136.17 4004.09,44.14 "/>
    <polygon fill="url(#id3)" points="-0,1545.69 -0,4048.2 1092.02,2956.21 1092.02,1136.17 "/>
    <polygon fill="url(#id4)" points="2912.05,1136.17 2912.05,2956.17 4004.09,44.14 "/>
    <polygon fill="url(#id5)" points="2912.05,2956.21 1092.02,2956.21 -0,4048.2 2502.53,4048.2 "/>
   </g>
  </g>
 </g>
</svg>
